<!DOCTYPE svg PUBLIC "-//W3C//DTD SVG 1.1//EN" "http://www.w3.org/Graphics/SVG/1.1/DTD/svg11.dtd">
<!-- Uploaded to: SVG Repo, www.svgrepo.com, Transformed by: SVG Repo Mixer Tools -->
<svg fill="#ffffff" width="100px" height="100px" viewBox="0 0 24 24" xmlns="http://www.w3.org/2000/svg" stroke="#ffffff">
<g id="SVGRepo_bgCarrier" stroke-width="0"/>
<g id="SVGRepo_tracerCarrier" stroke-linecap="round" stroke-linejoin="round"/>
<g id="SVGRepo_iconCarrier">
<path d="M19,8H14.724l3.144-5.5A1,1,0,0,0,17,1H10a1,1,0,0,0-.895.553l-5,10A1,1,0,0,0,5,13H9.656L7.042,21.713a1,1,0,0,0,1.722.933l11-13A1,1,0,0,0,19,8Zm-8.663,9.689,1.621-5.4A1,1,0,0,0,11,11H6.618l4-8h4.658L12.132,8.5A1,1,0,0,0,13,10h3.844Z"/>
</g>
</svg>