<!DOCTYPE svg PUBLIC "-//W3C//DTD SVG 1.1//EN" "http://www.w3.org/Graphics/SVG/1.1/DTD/svg11.dtd">
<!-- Uploaded to: SVG Repo, www.svgrepo.com, Transformed by: SVG Repo Mixer Tools -->
<svg fill="#ffffff" height="100px" width="100px" version="1.1" xmlns="http://www.w3.org/2000/svg" viewBox="0 0 512 512" xmlns:xlink="http://www.w3.org/1999/xlink" enable-background="new 0 0 512 512" stroke="#ffffff">
<g id="SVGRepo_bgCarrier" stroke-width="0"/>
<g id="SVGRepo_tracerCarrier" stroke-linecap="round" stroke-linejoin="round"/>
<g id="SVGRepo_iconCarrier"> <g> <path d="m336,200h-48v-48h32c17.672,0 32-14.328 32-32s-14.328-32-32-32h-128c-17.672,0-32,14.328-32,32s14.328,32 32,32h32v48h-48c-17.672,0-32,13.828-32,31.5v160c0,17.672 14.328,32.5 32,32.5h160c17.672,0 32-14.828 32-32.5v-160c0-17.672-14.328-31.5-32-31.5z"/> <path d="m480,215.75c-17.672,0-32,14.25-32,32.25h-48v128h48c0,17 14.328,31.75 32,31.75s32-14.578 32-32.25v-32-64-32c0-17.672-14.328-31.75-32-31.75z"/> <path d="m32,215.75c-17.672,0-32,14.078-32,31.75v32 64 32c0,17.672 14.328,32.25 32,32.25s32-14.75 32-31.75h48v-128h-48c0-18-14.328-32.25-32-32.25z"/> </g> </g>
</svg>