<!DOCTYPE svg PUBLIC "-//W3C//DTD SVG 1.1//EN" "http://www.w3.org/Graphics/SVG/1.1/DTD/svg11.dtd">
<!-- Uploaded to: SVG Repo, www.svgrepo.com, Transformed by: SVG Repo Mixer Tools -->
<svg fill="#37CE80" version="1.1" id="Layer_1" xmlns="http://www.w3.org/2000/svg" xmlns:xlink="http://www.w3.org/1999/xlink" viewBox="0 0 512 512" xml:space="preserve" width="100px" height="100px">
<g id="SVGRepo_bgCarrier" stroke-width="0"/>
<g id="SVGRepo_tracerCarrier" stroke-linecap="round" stroke-linejoin="round"/>
<g id="SVGRepo_iconCarrier"> <g> <g> <rect x="82.773" y="321.385" width="15.608" height="17.689"/> </g> </g> <g> <g> <rect x="412.617" y="321.385" width="15.608" height="17.689"/> </g> </g> <g> <g> <rect x="82.773" y="460.814" width="15.608" height="16.648"/> </g> </g> <g> <g> <path d="M433.448,371.29c17.816-5.401,30.823-21.971,30.823-41.527c0-23.926-19.465-43.39-43.39-43.39H134.508V0H47.729v329.763 c0,23.926,19.465,43.39,43.39,43.39h121.728c0,0-139.174,55.517-141.096,56.648c-14.227,7.13-24.021,21.844-24.021,38.81 c0,23.925,19.465,43.39,43.39,43.39h364.474v-86.779h-143.3L433.448,371.29z M117.152,329.763 c0,14.355-11.679,26.034-26.034,26.034s-26.034-11.679-26.034-26.035v-34.39h26.013v-17.689H65.084v-17.689h8.324v-17.689h-8.324 v-16.648h26.013v-17.689H65.084V191.32h8.324v-17.689h-8.324v-16.648h26.013v-17.689H65.084v-16.648h8.324v-17.689h-8.324V86.228 h26.013V68.539H65.084V51.891h8.324V34.202h-8.324V17.356h52.068V329.763z M212.838,355.798v-34.413h-17.689v34.413h-16.648v-8.4 h-17.689v8.4h-35.006c5.461-7.257,8.702-16.274,8.702-26.035v-26.035h286.374c14.355,0,26.035,11.679,26.035,26.035 c0,9.267-4.871,17.413-12.182,22.028l-0.026-0.058l-7.217,3.213c-2.111,0.555-4.325,0.852-6.608,0.852h-34.279v-8.4h-17.689v8.4 h-16.648v-34.413h-17.689v34.413h-18.729v-8.4H298.16v8.4h-16.648v-34.413h-17.689v34.413h-16.648v-8.4h-17.689v8.4H212.838z M213.206,391.686l4.253,10.699l16.128-6.411l-4.253-10.7l16.129-6.412l12.823,32.257l16.128-6.412l-12.544-31.557h18.677 l3.585,9.017l16.128-6.411l-1.036-2.605h87.364l-116.972,52.068h-61.757l-10.782-27.123L213.206,391.686z M164.82,410.92 l16.129-6.412l8.234,20.713h-32.612l12.033-4.783L164.82,410.92z M148.692,417.331l3.136,7.89h-22.984L148.692,417.331z M315.848,451.447v-8.872h18.729v34.885h17.689v-34.885h16.648v8.872h17.689v-8.872h16.648v34.885h17.689v-34.885h17.297v52.07 H91.118c-14.355,0-26.034-11.679-26.034-26.034c0-10.247,5.953-19.127,14.579-23.372l0.026,0.041 c0.167-0.107,0.348-0.194,0.516-0.298c3.321-1.54,7.017-2.407,10.912-2.407h34.316v34.885h17.689v-34.885h17.689v8.872H178.5 v-8.872h16.648v34.885h17.689v-34.885h16.648v8.872h17.689v-8.872h16.648v34.885h17.689v-34.885h16.648v8.872H315.848z"/> </g> </g> </g>
</svg>